<svg id="Layer_1" data-name="Layer 1" xmlns="http://www.w3.org/2000/svg" viewBox="0 0 39.88 39.88"><defs><style>.cls-1,.cls-2,.cls-3{stroke:#6abd45;stroke-miterlimit:10;}.cls-2{fill:#fff;}.cls-3{fill:#6abd45;}</style></defs><rect class="cls-1" x="0.5" y="0.5" width="38.88" height="38.88"/><line class="cls-2" x1="0.5" y1="5.93" x2="39.38" y2="5.93"/><line class="cls-2" x1="31.87" y1="0.06" x2="31.87" y2="5.93"/><line class="cls-3" x1="34.4" y1="4.48" x2="37.33" y2="1.91"/><line class="cls-3" x1="34.4" y1="1.91" x2="37.33" y2="4.48"/><path class="cls-3" d="M17.93,12.11H14.1a3.06,3.06,0,0,0-1.9.39c-.28.26-.42,1.05-.43,2.37l0,.42H9.4V10.63h22v4.66H29v-.42c0-1.32-.16-2.11-.44-2.37a3,3,0,0,0-1.9-.39H22.84V28.63a6.94,6.94,0,0,0,.37,2.55,5.05,5.05,0,0,0,2.29.42h.28V33H15V31.61h.29c1.29-.08,2.06-.25,2.29-.52a4.67,4.67,0,0,0,.36-2.43Z"/></svg>